<svg xmlns="http://www.w3.org/2000/svg" viewBox="0 0 547.25 481.29"><defs><style>.cls-1{fill:#fff;fill-rule:evenodd;}</style></defs><title>logo branco CACo</title><g id="Layer_2" data-name="Layer 2"><g id="Layer_1-2" data-name="Layer 1"><path class="cls-1" d="M362.43,293.76c.67,2.88,24.7,48.61,26.94,53.07.71,1.42,15.57,29.92,7.18,25-2-1.14-14.77-14.61-21.31-19.7l-16.59-13c-3.2-2.39-15.77-11.91-18.28-12.13-1.57-.13-1.84-1-2.64,6.85-.43,4.27,1.54,23.25,1.51,28.69,0,6.67,0,13.34,0,20,0,19.63-4,28.17-4,36.8h-1.6c-.7-3-9.21-17.56-10.93-21.07-2-4-3.6-6.33-5.6-10.4l-16.81-31.19c-13.75-24.9-17.78-16.45-30,2.5l-24.49,39.52C243.94,401.66,235.66,416,232,417l-1.48-23.32c-1.26-11.18,4-62.57-1.72-71.09-3.74,1-23.77,19.4-28.57,23.44-1.68,1.41-2.43,2.53-4.12,3.88-6.17,4.95-28.33,24.84-34.52,26.28,2.92-12.52,11.35-30.51,16.57-42.63,1.86-4.33,17-37.61,17.83-41.37,6.9,0,12.15,4.78,19.85,9.76,15.92,10.31,50.33,23.61,70.6,18.28,16-4.2,37.35-15.19,50-24.38,4.68-3.39,23.44-18.35,25.94-19.67l22.4,15.2c3.53,2.33,8.2,5.24,12,7.21L409.64,305c-5.68,0-8.74.39-12.84.1a53.59,53.59,0,0,1-13.12-2.15c-10.15-2.89-16.1-8-21.25-9.16Zm-227.22-1.6c8.14,3.91,33.7-15.24,40.8-20-.77,9.28-16.74,38.21-23.54,49.27-6,9.67-3.72,5.65-8.46,15.54,2.79-.65,2.3-.6,4.22-2.18,6.61-5.44,43.55-41.89,46.18-45.82-6.7-4.49-16.18-17.71-20.8-20.8-3,2-6.68,3.91-10.15,5.85l-19.6,11.6c-2.93,1.75-6.92,4-8.65,6.55Zm50.4-203.22a50,50,0,0,1,2.87-17.13c6.53-19,30-32.94,51-19.95,20.65,12.77,5.85,27.29-6.86,37.69C226,95,204,109.58,197.09,108.63c-7.78-1.08-11.47-10.78-11.47-19.69Zm107.21-24c0-10.6,18.29-18.4,28-18.4,7.71,0,18,4.29,23.52,9.28a40.47,40.47,0,0,1,10.09,13.91c4.11,9.15,3.84,27-1.89,34.12-1.5,1.88-6.5,5.09-9.31,5.09-6.3,0-25.1-13.81-29.71-17.49-6.21-5-20.69-16.57-20.69-26.51Zm-35.2-3.2c0,4,1.13,1.07.07,5.62-4.05,17.44-38.29,45.59-56.88,45.59-16.72,0-14.49-6.4-19.2-6.4-11.18,0-20.14,19.71-23.9,28.9-14.13,34.54-13.25,67.73,3.89,100.72,5,9.68,18.37,26.69,26.6,35,37.74,38.17,82.81,56.59,133.09,27,11-6.45,25.62-18.15,35-27.45,4.81-4.8,13.66-15.84,17.73-21.47,31.21-43.25,30.54-84.93,3.21-130.3-18.85-31.3-12.59-6.05-34-6.05-13.19,0-50.84-23.89-54.87-41.14-1.46-6.26-.16-11.19-4.1-15.1-3.27-3.24-9.69-4.36-14.06-4-12.32,1-12.57,2.91-12.57,9ZM0,120.15c0,10.78,5.21,25.58,7.84,36.16,16.25,65.42,42.39,154.95,75.62,214.8,2.75,5,4.95,10.11,9.35,13.06,6-4,13.66-16.71,17.93-22.88,1.69-2.45,16.47-24,16.47-24.33,0-3-6.47-14.54-8-17.61-2.62-5.29-5.63-11.36-10.73-14.87-8.85-6.1-34.38-5.08-39.68-12.32,3.18-4.34,16.84-5.36,23.89-6.52,6.43-1,9.52.92,7.09-6-1.53-4.35-2.85-7.59-4.28-11.81-10.69-31.41-20.45-61.36-29.56-93.65-2.37-8.4-3.94-15.77-6.1-24.3-9.1-35.9-7.3-27.34,21.76-46.57,9-5.95,19.42-11.43,28.77-16.84l29.3-16.3c5-3,9.89-4.9,14.7-7.7,14.7-8.54,31.34-15,47-21.79,23.72-10.26,49.22-16.88,75.9-13,10,1.44,27.68,3.13,33.94,12.47-7.31,10-52.41,7.11-65,5-17.75-2.9-25.22-10.67-42.32-.4-16,9.63-21.65,18.81-24,37.65C178.59,93.1,171.45,102,166,109.29a118.16,118.16,0,0,0-23.48,58.13c-3.28,29.53-1.54,41.78,11.14,67.14,4.64,9.28,9.36,18.27,12,29.6-6,9-31.15,18-43.49,22.11a85.89,85.89,0,0,1-18.91,3.49c.42,5.06,4.08,6.14,9.09,6.91,6.41,1,25,.8,30.57,0,5-.76,10.92-.46,16.34-.46-2,8.38-37.22,60.77-44,72-2.07,3.45-4.24,7.09-6.44,10.36,3.95-1.05,31.33-27.26,36.12-31.08l7.54-6.86c7.66-6,13-11.75,21.94-16.46,0,4.45-1.8,7.36-3.08,10.52s-2.7,6.63-4.11,9.49c-4.06,8.23-26.29,51.21-26.41,56.79L156,389.76c20.19-15.43,39.81-31.65,59.67-47.54,7.76-6.21,9.19-4,9.14,6.76,0,5.15.85,7.18.82,12.78v84c4.22-4.86,11.19-18.06,14.4-24,7.86-14.54,16.59-28.7,25.15-42.85,2.74-4.52,15.5-27.71,20.45-28.35,5.33-.69,16.2,22.36,18.66,26.94,1.35,2.5,2.15,3.43,3.48,6.12l25.32,48.29c1.33,2.67,2.15,3.63,3.48,6.12,1,1.94,2.11,4.58,3.46,6.14a178.32,178.32,0,0,0,3.19-24.81c.83-18,2.43-35.75,2.41-53.6,0-11.43,2.29-20.55,2.4-25.6,3.35.07,3.87.95,5.64,2.36A255.93,255.93,0,0,1,375.83,362c8.19,8.27,17.37,15.69,25.6,24,2.74,2.77,5.48,5.89,8.54,8.27,3.27,2.54,5.89,6.39,10.06,6.74-.2-8.76-26.09-59.39-30.67-68.54l-8.28-16.53c-1.17-2.34-1.66-4.07-2.66-6.14,9.42.78,19.1,5.08,29.14,3.54,7.51-1.15,22.26.14,26.87-6.74-1.74-2.6-5.09-3.62-8.1-4.7-9.91-3.54-17.63-3.56-28.36-10l-23.71-14.7c-2.6-1.74-4.84-4.17-7.83-5,.69-2.6,4.4-6.66,6.17-9,17.72-23.61,30.63-46.8,30.63-79.78,0-57.07-37.62-73-41.6-120.81,10.34,6.92,22.16,12.33,32.24,19.77,5.28,3.89,10.32,6.94,15.54,10.86,2.68,2,4.94,3.32,7.55,5.25l38.4,28c10.13,7.6,19.79,15.49,30.29,22.52-2.76,5.74-4.38,11.9-6.74,18.06-7.1,18.53-13.92,36.93-21.6,55.21-7.36,17.52-20.66,45.84-26.77,62.83-5,14-3.9,11.13,15.7,13.72a90.74,90.74,0,0,1,9.31,1.89c3.31.94,6.12,1.94,7.7,4.3-2.25,3.07-11.12,5-15.3,6.3-11.11,3.55-23.1,6.47-33.61,11.19-20,9-3,38.39,2.73,51.89,2.52,5.9,5,10.65,7.44,16.56,2.33,5.61,6.19,11.47,7.54,17.26,3.11-2.28,6.53-10.23,8.55-13.85,8.27-14.8,16.89-29,24.52-44.29,5-9.93,11-20.47,15-30.56,4-9.87,16.47-36.2,21.48-47.33,6.59-14.66,42.19-100.49,45.62-115.2-2.63-3.93-9.86-9-14.06-12.35-17.72-13.93-35.48-27.62-54.11-40.3-2.8-1.91-5.25-3.64-8-5.63-35.74-26.25-55.24-38.42-94.25-61-1.68-1-2.4-1.55-4.56-2.64-6.42-3.26-11.67-6.22-17.88-9.32-65.07-32.54-98-33.07-167.31-8.09-17.1,6.16-33.75,14.22-49.78,22.23l-32,16.8c-3.07,1.56-4.77,2.81-7.73,4.27s-4.79,2.67-7.73,4.27L59.66,83C49.33,89.21,40,95,29.75,101.1c-2.71,1.63-4.93,3.13-7.39,4.61C19,107.75,0,118.4,0,120.15Z"/><path class="cls-1" d="M100,396.17c0,8.07,17.75,34.53,22.88,41.93l10.28,13.72c5.44,7.24,4.36,5,9.37,10.63,4.72,5.26,6.2,5,13.54,6.46,18,3.56,36.85,6.17,55.38,8.62,9.41,1.24,20.13,1.83,29.4,2.6,5.46.45,10.62,0,15.38.62,11,1.51,72.79-.61,81.27-1.5,13.33-1.41,28.59-2.6,40.77-5.63,13-3.22,11-3.62,19.95-13.65a133.72,133.72,0,0,0,10-13.23c1.81-2.72,3.15-4.36,5-7,1.64-2.41,2.79-4.5,4.33-6.87,6.22-9.67,3.14-16.42-4.07-24.46-1.95-2.17-3.11-4-5.18-6l-16-17.59c-1.59-1.8-9.26-10.44-11.39-11L369.07,386c-7.21,8.63-12.32,13.23-16.15,24.65s-5.26,28.51-7.75,41.05c-1.11,5.61-2.46,8.63-3.54,13.26-3.25-2.38-9.5-15.53-11.54-20.46l-6.75-14.85c-2.38-5.8-8.84-19.35-9.71-23.09H255.22c-2.48,4.69-4.83,9.64-7.2,14.4l-19.19,36.82c-1.39,2.63-2.41,4.73-5.61,5.59-1.62-3.37-2.56-8.71-3.06-12.94-.6-5-.52-10.49-1.28-15.53-.78-5.19-.27-10.12-.44-15.57-.17-5.78-.83-5.68-.83-16-4.21,0-9.57-1.33-13.94-2.06l-27.2-4.81c-19-3.45-10.63-4.08-34.4,13.73-3.77,2.82-7.12,4.88-10.75,7.65A72.6,72.6,0,0,1,120,425c.22-9.71,25.6-47.32,25.6-59.21C145.61,355.64,100,392.13,100,396.17Z"/><path class="cls-1" d="M272.82,253.76c-23,0-45.6-26.68-45.6-38.4,11.24,0,12.83.56,23.54,2.06l19.74,1.93,20-1.52c20.1-1.95,31.83-7.38,20.89,8.89-5.71,8.48-12.49,16.43-21.4,21.8-3.86,2.32-11.49,5.24-17.17,5.24Zm4-41.6c-39.24,0-58.33-9.17-88.47-27.54-7.43-4.53-13.43-10.29-22.74-12.46.7,8.41,13.11,9.58,17.5,20.11,1.85,4.43,1.44,10.5,2.7,15.7a105.1,105.1,0,0,0,4.71,14.49c10.07,24.7,28.54,47.84,49.38,64.23,6.86,5.39,16.26,9.73,26.23,12.18,19,4.68,38.49-10.85,50.5-22.9,15-15.09,31.84-35.19,38.1-56.31,5.21-17.58,3.91-22.34,17.77-39.83,14.3-18-15.5,3.74-23.67,9.14C329.1,202,300.85,212.15,276.82,212.15Z"/><path class="cls-1" d="M312,61.74c.65,7.77,4.29,3.64,6.95,7.46,2,2.94.42,6.82,4,10.38,2.59,2.57,6.12,3.11,9.6,4.8,7.14,3.46,2.24,7.77,8.23,7.77s7.41-20.66-2.21-26.59C333.13,62.16,319.11,57.49,312,61.74Z"/><path class="cls-1" d="M197.62,88.14c0,1.35,1.07,3,1.6,4,8.52-.71,29.74-22.38,30.4-30.4-5.51-2.91-7.91-1.45-15.38.62-4.57,1.27-6.67,1.74-9.67,4.73C200.89,70.77,197.62,81.07,197.62,88.14Z"/></g></g></svg>